<svg
  xmlns="http://www.w3.org/2000/svg"
  viewBox="0 0 64 64"
  fill="none"
>
  <title>Stór | Oireachtas Research Repository</title>
  <g stroke="#6b5922" stroke-linejoin="round">
    <path d="M12 20H26L32 16L38 20H52" stroke-width="1.8" />
    <line x1="12" y1="22" x2="52" y2="22" stroke-width="1.8" />
    <rect x="12" y="22" width="40" height="24" stroke-width="1.8" />
    <line x1="27.5" y1="22" x2="27.5" y2="46" stroke-width="1.6" />
    <line x1="30" y1="22" x2="30" y2="46" stroke-width="1.6" />
    <line x1="34" y1="22" x2="34" y2="46" stroke-width="1.6" />
    <line x1="36.5" y1="22" x2="36.5" y2="46" stroke-width="1.6" />
    <line x1="26.5" y1="46" x2="37.5" y2="46" stroke-width="1.8" />
    <line x1="12" y1="46" x2="52" y2="46" stroke-width="1.8" />
  </g>
  <rect x="30.7" y="35.7" width="2.6" height="10.3" fill="#6b5922" />
  <g fill="#6b5922">
    <rect x="15" y="26.4" width="2.2" height="2.2" />
    <rect x="20" y="26.4" width="2.2" height="2.2" />
    <rect x="25" y="26.4" width="2.2" height="2.2" />
    <rect x="36.8" y="26.4" width="2.2" height="2.2" />
    <rect x="41.8" y="26.4" width="2.2" height="2.2" />
    <rect x="46.8" y="26.4" width="2.2" height="2.2" />
    <rect x="15" y="34" width="2.2" height="2.2" />
    <rect x="20" y="34" width="2.2" height="2.2" />
    <rect x="25" y="34" width="2.2" height="2.2" />
    <rect x="36.8" y="34" width="2.2" height="2.2" />
    <rect x="41.8" y="34" width="2.2" height="2.2" />
    <rect x="46.8" y="34" width="2.2" height="2.2" />
  </g>
</svg>
