<svg id="Layer_1" data-name="Layer 1" xmlns="http://www.w3.org/2000/svg" viewBox="0 0 419.53 256.06">
  <defs>
    <style>
      .cls-1 {
        fill: none;
      }

      .cls-2 {
        fill: #69bf6b;
      }

      .cls-3 {
        fill: #00aeef;
      }

      .cls-4 {
        clip-path: url(#clippath-1);
      }

      .cls-5 {
        clip-path: url(#clippath-3);
      }

      .cls-6 {
        clip-path: url(#clippath-4);
      }

      .cls-7 {
        clip-path: url(#clippath-2);
      }

      .cls-8 {
        clip-path: url(#clippath-7);
      }

      .cls-9 {
        clip-path: url(#clippath-6);
      }

      .cls-10 {
        clip-path: url(#clippath-8);
      }

      .cls-11 {
        clip-path: url(#clippath-5);
      }

      .cls-12 {
        letter-spacing: 0em;
      }

      .cls-13 {
        letter-spacing: 0em;
      }

      .cls-14 {
        letter-spacing: 0em;
      }

      .cls-15, .cls-16 {
        fill: #fff;
      }

      .cls-17 {
        letter-spacing: 0em;
      }

      .cls-16 {
        font-family: IBMPlexSans-SemiBold, 'IBM Plex Sans';
        font-size: 8px;
        font-weight: 600;
      }

      .cls-18 {
        letter-spacing: 0em;
      }

      .cls-19 {
        fill: #00aaac;
      }

      .cls-20 {
        letter-spacing: -.08em;
      }

      .cls-21 {
        fill: #231f20;
        font-family: IBMPlexSans-Bold, 'IBM Plex Sans';
        font-size: 9px;
        font-weight: 700;
      }

      .cls-22 {
        letter-spacing: -.02em;
      }

      .cls-23 {
        letter-spacing: -.02em;
      }

      .cls-24 {
        letter-spacing: -.02em;
      }

      .cls-25 {
        letter-spacing: 0em;
      }

      .cls-26 {
        letter-spacing: 0em;
      }

      .cls-27 {
        letter-spacing: 0em;
      }

      .cls-28 {
        letter-spacing: 0em;
      }

      .cls-29 {
        letter-spacing: 0em;
      }

      .cls-30 {
        letter-spacing: 0em;
      }

      .cls-31 {
        letter-spacing: 0em;
      }

      .cls-32 {
        letter-spacing: 0em;
      }

      .cls-33 {
        letter-spacing: 0em;
      }

      .cls-34 {
        letter-spacing: -.01em;
      }

      .cls-35 {
        letter-spacing: -.01em;
      }

      .cls-36 {
        letter-spacing: 0em;
      }

      .cls-37 {
        letter-spacing: 0em;
      }

      .cls-38 {
        letter-spacing: 0em;
      }

      .cls-39 {
        letter-spacing: 0em;
      }

      .cls-40 {
        letter-spacing: 0em;
      }

      .cls-41 {
        letter-spacing: 0em;
      }

      .cls-42 {
        letter-spacing: 0em;
      }

      .cls-43 {
        letter-spacing: 0em;
      }

      .cls-44 {
        letter-spacing: 0em;
      }

      .cls-45 {
        letter-spacing: 0em;
      }

      .cls-46 {
        clip-path: url(#clippath);
      }

      .cls-47 {
        letter-spacing: 0em;
      }

      .cls-48 {
        letter-spacing: .01em;
      }

      .cls-49 {
        letter-spacing: 0em;
      }
    </style>
    <clipPath id="clippath">
      <rect class="cls-1" width="419.53" height="256.06"></rect>
    </clipPath>
    <clipPath id="clippath-1">
      <rect class="cls-1" width="419.53" height="256.06"></rect>
    </clipPath>
    <clipPath id="clippath-2">
      <rect class="cls-1" width="419.53" height="256.06"></rect>
    </clipPath>
    <clipPath id="clippath-3">
      <rect class="cls-1" width="419.53" height="256.06"></rect>
    </clipPath>
    <clipPath id="clippath-4">
      <rect class="cls-1" width="419.53" height="256.06"></rect>
    </clipPath>
    <clipPath id="clippath-5">
      <rect class="cls-1" width="419.53" height="256.06"></rect>
    </clipPath>
    <clipPath id="clippath-6">
      <rect class="cls-1" width="419.53" height="256.06"></rect>
    </clipPath>
    <clipPath id="clippath-7">
      <rect class="cls-1" width="419.53" height="256.06"></rect>
    </clipPath>
    <clipPath id="clippath-8">
      <rect class="cls-1" width="419.53" height="256.06"></rect>
    </clipPath>
  </defs>
  <text class="cls-21" transform="translate(24.48 40.79)"><tspan class="cls-23" x="0" y="0">P</tspan><tspan x="5.73" y="0">olicy design and </tspan></text>
  <text class="cls-21" transform="translate(52.13 53.79)"><tspan x="0" y="0">moni</tspan><tspan class="cls-45" x="21.06" y="0">t</tspan><tspan class="cls-14" x="24.48" y="0">oring</tspan></text>
  <g class="cls-46">
    <path class="cls-19" d="M122.55,6.74h69.37c6.26,0,11.34,5.08,11.34,11.34v51.42c0,6.26-5.08,11.34-11.34,11.34h-69.37c-6.26,0-11.34-5.08-11.34-11.34V18.08c0-6.26,5.08-11.34,11.34-11.34Z"></path>
  </g>
  <text class="cls-16" transform="translate(153.29 19.64)"><tspan x="0" y="0">1.</tspan></text>
  <text class="cls-16" transform="translate(126.41 29.64)"><tspan x="0" y="0">Se</tspan><tspan class="cls-27" x="9.35" y="0">t</tspan><tspan class="cls-12" x="12.3" y="0">ting </tspan><tspan class="cls-39" x="28.45" y="0">s</tspan><tspan class="cls-12" x="32.38" y="0">t</tspan><tspan class="cls-34" x="35.38" y="0">r</tspan><tspan class="cls-42" x="38.43" y="0">a</tspan><tspan class="cls-33" x="42.88" y="0">t</tspan><tspan x="45.84" y="0">egic </tspan></text>
  <text class="cls-16" transform="translate(121.13 39.64)"><tspan class="cls-44" x="0" y="0">g</tspan><tspan x="4.34" y="0">uidan</tspan><tspan class="cls-33" x="25.22" y="0">c</tspan><tspan class="cls-24" x="29.3" y="0">e</tspan><tspan class="cls-17" x="33.63" y="0">, en</tspan><tspan class="cls-41" x="47.07" y="0">g</tspan><tspan x="51.42" y="0">aging </tspan></text>
  <text class="cls-16" transform="translate(124.89 49.64)"><tspan class="cls-39" x="0" y="0">s</tspan><tspan class="cls-12" x="3.94" y="0">ta</tspan><tspan class="cls-22" x="11.4" y="0">k</tspan><tspan x="15.71" y="0">eholders and </tspan></text>
  <text class="cls-16" transform="translate(124.51 59.64)"><tspan x="0" y="0">d</tspan><tspan class="cls-37" x="4.8" y="0">e</tspan><tspan class="cls-39" x="9.19" y="0">v</tspan><tspan class="cls-17" x="13.33" y="0">eloping policy</tspan></text>
  <g class="cls-4">
    <path class="cls-19" d="M227.6,6.74h69.37c6.26,0,11.34,5.08,11.34,11.34v51.42c0,6.26-5.08,11.34-11.34,11.34h-69.37c-6.26,0-11.34-5.08-11.34-11.34V18.08c0-6.26,5.08-11.34,11.34-11.34Z"></path>
  </g>
  <text class="cls-16" transform="translate(258.34 19.64)"><tspan x="0" y="0">2.</tspan></text>
  <text class="cls-16" transform="translate(235.63 29.64)"><tspan class="cls-33" x="0" y="0">S</tspan><tspan x="4.86" y="0">t</tspan><tspan class="cls-32" x="7.85" y="0">r</tspan><tspan x="10.96" y="0">engthening </tspan></text>
  <text class="cls-16" transform="translate(238.64 39.64)"><tspan x="0" y="0">a</tspan><tspan class="cls-29" x="4.47" y="0">s</tspan><tspan x="8.42" y="0">se</tspan><tspan class="cls-25" x="16.87" y="0">s</tspan><tspan x="20.82" y="0">sment: </tspan></text>
  <text class="cls-16" transform="translate(287.12 39.64)"><tspan x="0" y="0"> </tspan></text>
  <path class="cls-15" d="M241.29,44.06h2.03c.36,0,.69.06.99.18.3.12.55.29.76.52.21.23.37.52.49.87.11.35.17.76.17,1.22s-.06.87-.17,1.22c-.11.35-.28.64-.49.87-.21.23-.46.41-.76.52-.3.12-.63.18-.99.18h-2.03v-5.58ZM243.32,48.71c.39,0,.71-.12.94-.35s.35-.59.35-1.07v-.88c0-.48-.12-.84-.35-1.07-.23-.23-.55-.35-.94-.35h-.98v3.71h.98ZM248.43,49.74c-.31,0-.59-.05-.83-.16-.24-.1-.45-.25-.62-.44-.17-.19-.3-.42-.39-.69-.09-.27-.14-.57-.14-.91s.04-.63.13-.9c.09-.27.21-.49.38-.68.17-.19.37-.34.61-.44.24-.1.51-.16.82-.16.33,0,.61.06.85.17.24.11.44.26.59.46.15.19.27.41.35.67.08.25.12.52.12.81v.34h-2.78v.1c0,.3.09.54.26.73.17.18.42.27.76.27.26,0,.47-.05.63-.16.16-.11.31-.24.44-.41l.55.62c-.17.24-.4.43-.7.57-.3.14-.64.2-1.03.2ZM248.41,46.14c-.27,0-.49.09-.65.27-.16.18-.24.42-.24.7v.06h1.71v-.07c0-.29-.07-.52-.21-.7-.14-.18-.35-.27-.61-.27ZM251.41,46.28h-.62v-.81h.62v-.6c0-.37.1-.65.29-.85.19-.2.48-.3.86-.3h.73v.82h-.86v.92h2.58v4.18h-1.02v-3.37h-1.55v3.37h-1.02v-3.37ZM254.5,44.86c-.21,0-.37-.05-.46-.14-.09-.1-.14-.22-.14-.37v-.16c0-.15.05-.27.14-.37.09-.1.25-.14.46-.14s.36.05.46.14.14.22.14.37v.16c0,.15-.05.27-.14.37-.1.1-.25.14-.46.14ZM256.2,49.64v-4.18h1.02v.7h.04c.09-.22.22-.41.4-.56s.44-.23.76-.23c.43,0,.76.14.99.42.23.28.34.69.34,1.21v2.64h-1.02v-2.54c0-.3-.05-.52-.16-.67-.11-.15-.28-.22-.53-.22-.11,0-.21.01-.31.04-.1.03-.19.07-.26.13-.08.06-.14.13-.19.21-.05.08-.07.18-.07.29v2.76h-1.02ZM261.41,44.86c-.21,0-.37-.05-.46-.14-.09-.1-.14-.22-.14-.37v-.16c0-.15.05-.27.14-.37.09-.1.25-.14.46-.14s.36.05.46.14.14.22.14.37v.16c0,.15-.05.27-.14.37-.1.1-.25.14-.46.14ZM260.9,45.47h1.02v4.18h-1.02v-4.18ZM264.41,49.64c-.35,0-.62-.09-.8-.28-.18-.18-.28-.45-.28-.79v-2.29h-.62v-.82h.32c.15,0,.26-.04.32-.11s.08-.18.08-.32v-.71h.92v1.14h.86v.82h-.86v2.53h.79v.82h-.74ZM266.61,44.86c-.21,0-.37-.05-.46-.14-.09-.1-.14-.22-.14-.37v-.16c0-.15.05-.27.14-.37.09-.1.25-.14.46-.14s.36.05.46.14.14.22.14.37v.16c0,.15-.05.27-.14.37-.1.1-.25.14-.46.14ZM266.1,45.47h1.02v4.18h-1.02v-4.18ZM269.96,49.74c-.3,0-.57-.05-.8-.15-.24-.1-.44-.25-.61-.44-.17-.19-.3-.42-.39-.69-.09-.27-.14-.57-.14-.91s.05-.64.14-.9c.09-.27.22-.49.39-.68.17-.19.37-.33.61-.44.24-.1.51-.15.8-.15s.57.05.81.15c.24.1.44.25.61.44.17.19.3.42.39.68.09.27.14.57.14.9s-.05.64-.14.91c-.09.27-.22.5-.39.69-.17.19-.37.34-.61.44s-.51.15-.81.15ZM269.96,48.92c.27,0,.49-.08.64-.25.15-.17.23-.41.23-.73v-.78c0-.31-.08-.55-.23-.72-.15-.17-.37-.25-.64-.25s-.48.08-.63.25c-.15.17-.23.41-.23.72v.78c0,.32.08.56.23.73.15.17.37.25.63.25ZM272.81,49.64v-4.18h1.02v.7h.04c.09-.22.22-.41.4-.56s.44-.23.76-.23c.43,0,.76.14.99.42.23.28.34.69.34,1.21v2.64h-1.02v-2.54c0-.3-.05-.52-.16-.67-.11-.15-.28-.22-.53-.22-.11,0-.21.01-.31.04-.1.03-.19.07-.26.13-.08.06-.14.13-.19.21-.05.08-.07.18-.07.29v2.76h-1.02ZM278.88,49.74c-.4,0-.74-.07-1.01-.2-.27-.14-.51-.32-.72-.56l.62-.61c.15.18.32.31.51.42.18.1.4.15.64.15s.42-.04.53-.13c.11-.09.16-.2.16-.35,0-.12-.04-.22-.12-.29-.08-.07-.21-.12-.4-.15l-.42-.06c-.45-.06-.8-.19-1.04-.39-.24-.2-.36-.49-.36-.88,0-.2.04-.39.11-.55.07-.16.18-.3.32-.42.14-.11.31-.2.5-.26.19-.06.41-.09.65-.09.2,0,.38.01.54.04.16.03.3.07.43.13.13.06.25.13.35.21.11.08.21.17.31.28l-.6.6c-.12-.13-.27-.23-.44-.32-.17-.09-.36-.13-.56-.13-.22,0-.39.04-.48.12-.1.08-.15.18-.15.31,0,.14.04.24.12.32.08.07.22.12.42.16l.42.06c.9.13,1.35.54,1.35,1.23,0,.2-.04.39-.12.56-.08.17-.2.31-.35.43-.15.12-.33.21-.54.28-.21.07-.45.1-.71.1ZM282.05,48.41c.22,0,.38.06.48.17s.16.25.16.42v.14c0,.14-.02.29-.06.45s-.1.3-.17.45c-.07.14-.16.28-.26.41-.1.13-.21.24-.33.34h-.73c.18-.18.33-.35.46-.52.12-.17.22-.35.28-.56-.17-.03-.29-.09-.36-.2-.07-.1-.11-.23-.11-.37v-.14c0-.17.05-.31.15-.42.1-.11.26-.17.49-.17Z"></path>
  <text class="cls-16" transform="translate(285.13 49.64)"><tspan x="0" y="0"> </tspan></text>
  <text class="cls-16" transform="translate(238.48 59.64)"><tspan x="0" y="0">d</tspan><tspan class="cls-43" x="4.8" y="0">a</tspan><tspan x="9.25" y="0">t</tspan><tspan class="cls-48" x="12.24" y="0">a</tspan><tspan x="16.79" y="0">, dri</tspan><tspan class="cls-40" x="31.21" y="0">v</tspan><tspan class="cls-18" x="35.34" y="0">ers</tspan></text>
  <g class="cls-7">
    <path class="cls-19" d="M332.65,6.74h69.37c6.26,0,11.34,5.08,11.34,11.34v51.42c0,6.26-5.08,11.34-11.34,11.34h-69.37c-6.26,0-11.34-5.08-11.34-11.34V18.08c0-6.26,5.08-11.34,11.34-11.34Z"></path>
  </g>
  <text class="cls-16" transform="translate(363.39 19.64)"><tspan x="0" y="0">3.</tspan></text>
  <text class="cls-16" transform="translate(345.96 29.64)"><tspan x="0" y="0">Embedding </tspan></text>
  <text class="cls-16" transform="translate(389.89 29.64)"><tspan x="0" y="0"> </tspan></text>
  <text class="cls-16" transform="translate(346.88 39.64)"><tspan class="cls-35" x="0" y="0">s</tspan><tspan class="cls-28" x="3.9" y="0">ys</tspan><tspan class="cls-33" x="11.97" y="0">t</tspan><tspan x="14.93" y="0">em</tspan><tspan class="cls-43" x="26.5" y="0">a</tspan><tspan x="30.94" y="0">tic </tspan></text>
  <text class="cls-16" transform="translate(388.99 39.64)"><tspan x="0" y="0"> </tspan></text>
  <text class="cls-16" transform="translate(338.86 49.64)"><tspan x="0" y="0">moni</tspan><tspan class="cls-33" x="18.52" y="0">t</tspan><tspan x="21.48" y="0">oring and </tspan></text>
  <text class="cls-16" transform="translate(339.41 59.64)"><tspan class="cls-40" x="0" y="0">ev</tspan><tspan x="8.53" y="0">alu</tspan><tspan class="cls-43" x="20.06" y="0">a</tspan><tspan class="cls-13" x="24.5" y="0">tion in</tspan><tspan class="cls-33" x="47.71" y="0">t</tspan><tspan x="50.67" y="0">o </tspan></text>
  <text class="cls-16" transform="translate(342.24 69.64)"><tspan x="0" y="0">policymaking</tspan></text>
  <text class="cls-21" transform="translate(72.66 124.82)"><tspan class="cls-23" x="0" y="0">P</tspan><tspan x="5.73" y="0">olicy </tspan></text>
  <text class="cls-21" transform="translate(30.9 137.81)"><tspan x="0" y="0">implement</tspan><tspan class="cls-26" x="45.79" y="0">a</tspan><tspan x="50.86" y="0">tion</tspan></text>
  <g class="cls-5">
    <path class="cls-3" d="M122.55,90.76h69.37c6.26,0,11.34,5.08,11.34,11.34v51.42c0,6.26-5.08,11.34-11.34,11.34h-69.37c-6.26,0-11.34-5.08-11.34-11.34v-51.42c0-6.26,5.08-11.34,11.34-11.34Z"></path>
  </g>
  <text class="cls-16" transform="translate(153.29 103.67)"><tspan x="0" y="0">4.</tspan></text>
  <text class="cls-16" transform="translate(136.53 113.67)"><tspan class="cls-37" x="0" y="0">P</tspan><tspan class="cls-12" x="5.06" y="0">rioritising</tspan></text>
  <text class="cls-16" transform="translate(177.25 113.67)"><tspan x="0" y="0"> </tspan></text>
  <text class="cls-16" transform="translate(136.89 123.67)"><tspan x="0" y="0">p</tspan><tspan class="cls-33" x="4.8" y="0">r</tspan><tspan class="cls-40" x="7.91" y="0">e</tspan><tspan class="cls-39" x="12.31" y="0">v</tspan><tspan x="16.45" y="0">ention</tspan></text>
  <g class="cls-6">
    <path class="cls-3" d="M227.6,90.76h69.37c6.26,0,11.34,5.08,11.34,11.34v51.42c0,6.26-5.08,11.34-11.34,11.34h-69.37c-6.26,0-11.34-5.08-11.34-11.34v-51.42c0-6.26,5.08-11.34,11.34-11.34Z"></path>
  </g>
  <text class="cls-16" transform="translate(258.34 103.67)"><tspan x="0" y="0">5.</tspan></text>
  <text class="cls-16" transform="translate(226.3 113.67)"><tspan x="0" y="0">Securing long-</tspan><tspan class="cls-33" x="53.6" y="0">t</tspan><tspan x="56.56" y="0">erm </tspan></text>
  <text class="cls-16" transform="translate(229.43 123.67)"><tspan x="0" y="0">housing solutions </tspan></text>
  <text class="cls-16" transform="translate(296.33 123.67)"><tspan x="0" y="0"> </tspan></text>
  <text class="cls-16" transform="translate(235.21 133.67)"><tspan x="0" y="0">and scaling up </tspan></text>
  <text class="cls-16" transform="translate(290.55 133.67)"><tspan x="0" y="0"> </tspan></text>
  <text class="cls-16" transform="translate(239.93 143.67)"><tspan x="0" y="0">housing-led </tspan></text>
  <text class="cls-16" transform="translate(238.45 153.67)"><tspan x="0" y="0">p</tspan><tspan class="cls-32" x="4.8" y="0">r</tspan><tspan x="7.91" y="0">og</tspan><tspan class="cls-38" x="16.78" y="0">r</tspan><tspan x="19.84" y="0">ammes</tspan></text>
  <g class="cls-11">
    <path class="cls-3" d="M332.65,90.76h69.37c6.26,0,11.34,5.08,11.34,11.34v51.42c0,6.26-5.08,11.34-11.34,11.34h-69.37c-6.26,0-11.34-5.08-11.34-11.34v-51.42c0-6.26,5.08-11.34,11.34-11.34Z"></path>
  </g>
  <text class="cls-16" transform="translate(363.39 103.67)"><tspan x="0" y="0">6.</tspan></text>
  <text class="cls-16" transform="translate(340.24 113.67)"><tspan class="cls-36" x="0" y="0">P</tspan><tspan class="cls-32" x="5.06" y="0">r</tspan><tspan class="cls-28" x="8.17" y="0">o</tspan><tspan x="12.62" y="0">viding l</tspan><tspan class="cls-36" x="39.33" y="0">o</tspan><tspan class="cls-43" x="43.76" y="0">w</tspan><tspan x="50.29" y="0">-</tspan></text>
  <text class="cls-16" transform="translate(393.72 113.67)"><tspan x="0" y="0"> </tspan></text>
  <text class="cls-16" transform="translate(338.03 123.67)"><tspan x="0" y="0">barrie</tspan><tspan class="cls-20" x="22.23" y="0">r</tspan><tspan x="24.74" y="0">, tailo</tspan><tspan class="cls-33" x="45.54" y="0">r</tspan><tspan x="48.65" y="0">ed </tspan></text>
  <text class="cls-16" transform="translate(397.82 123.67)"><tspan x="0" y="0"> </tspan></text>
  <text class="cls-16" transform="translate(344.56 133.67)"><tspan x="0" y="0">suppo</tspan><tspan class="cls-47" x="22.8" y="0">r</tspan><tspan x="25.98" y="0">t and </tspan></text>
  <text class="cls-16" transform="translate(391.28 133.67)"><tspan x="0" y="0"> </tspan></text>
  <text class="cls-16" transform="translate(344.4 143.67)"><tspan x="0" y="0">w</tspan><tspan class="cls-38" x="6.55" y="0">r</tspan><tspan x="9.62" y="0">apa</tspan><tspan class="cls-32" x="23.36" y="0">r</tspan><tspan x="26.47" y="0">ound </tspan></text>
  <text class="cls-16" transform="translate(391.45 143.67)"><tspan x="0" y="0"> </tspan></text>
  <text class="cls-16" transform="translate(351.68 153.67)"><tspan x="0" y="0">se</tspan><tspan class="cls-49" x="8.46" y="0">r</tspan><tspan class="cls-13" x="11.66" y="0">vi</tspan><tspan class="cls-32" x="18.06" y="0">c</tspan><tspan x="22.14" y="0">es</tspan></text>
  <text class="cls-21" transform="translate(72.66 209.29)"><tspan class="cls-23" x="0" y="0">P</tspan><tspan x="5.73" y="0">olicy </tspan></text>
  <text class="cls-21" transform="translate(98.22 209.29)"><tspan x="0" y="0"> </tspan></text>
  <text class="cls-21" transform="translate(42.68 222.28)"><tspan x="0" y="0">mana</tspan><tspan class="cls-26" x="23.65" y="0">g</tspan><tspan x="28.57" y="0">ement</tspan></text>
  <g class="cls-9">
    <path class="cls-2" d="M122.55,175.23h69.37c6.26,0,11.34,5.08,11.34,11.34v51.42c0,6.26-5.08,11.34-11.34,11.34h-69.37c-6.26,0-11.34-5.08-11.34-11.34v-51.42c0-6.26,5.08-11.34,11.34-11.34Z"></path>
  </g>
  <text class="cls-16" transform="translate(153.29 188.14)"><tspan x="0" y="0">7.</tspan></text>
  <text class="cls-16" transform="translate(122.87 198.14)"><tspan x="0" y="0">Mobilising funding </tspan></text>
  <text class="cls-16" transform="translate(192.79 198.14)"><tspan x="0" y="0"> </tspan></text>
  <path class="cls-15" d="M127.56,208.14c-.22,0-.4-.07-.53-.2-.13-.13-.21-.31-.24-.52h-.05c-.07.27-.21.48-.42.61-.21.14-.48.2-.79.2-.43,0-.75-.11-.98-.33-.23-.22-.34-.52-.34-.89,0-.43.15-.75.46-.96.31-.21.75-.32,1.32-.32h.71v-.3c0-.23-.06-.42-.18-.54-.12-.13-.32-.19-.59-.19-.24,0-.43.05-.58.16-.15.1-.27.23-.37.37l-.61-.55c.15-.24.36-.44.62-.58.26-.15.59-.22,1.02-.22.57,0,.99.13,1.29.38.29.26.44.62.44,1.1v1.96h.42v.82h-.57ZM125.86,207.49c.23,0,.42-.05.58-.15.16-.1.24-.25.24-.45v-.55h-.66c-.53,0-.8.17-.8.51v.13c0,.17.05.3.16.38.11.08.27.12.47.12ZM128.96,208.14v-4.18h1.02v.7h.04c.09-.22.22-.41.4-.56.18-.15.44-.23.76-.23.43,0,.76.14.99.42.23.28.34.69.34,1.21v2.64h-1.02v-2.54c0-.3-.05-.52-.16-.67-.11-.15-.28-.22-.53-.22-.11,0-.21.01-.31.04-.1.03-.19.07-.26.13-.08.06-.14.13-.19.21-.05.08-.07.18-.07.29v2.76h-1.02ZM136.25,207.44h-.04c-.07.24-.22.43-.42.58-.21.14-.45.22-.73.22-.53,0-.93-.19-1.21-.57-.28-.38-.42-.92-.42-1.62s.14-1.24.42-1.61c.28-.38.68-.56,1.21-.56.28,0,.52.07.73.21.21.14.35.33.42.57h.04v-2.43h1.02v5.92h-1.02v-.7ZM135.39,207.38c.25,0,.45-.06.62-.18.17-.12.25-.29.25-.5v-1.33c0-.2-.08-.37-.25-.49-.17-.12-.37-.18-.62-.18-.27,0-.48.09-.64.27-.16.18-.24.42-.24.72v.72c0,.3.08.54.24.71.16.18.38.26.64.26ZM140.56,204.77h-.62v-.81h.62v-.6c0-.37.1-.65.29-.85.19-.2.48-.3.86-.3h.73v.82h-.86v.92h2.58v4.18h-1.02v-3.37h-1.55v3.37h-1.02v-3.37ZM143.65,203.35c-.21,0-.37-.05-.46-.14-.09-.1-.14-.22-.14-.37v-.16c0-.15.05-.27.14-.37.09-.1.25-.14.46-.14s.36.05.46.14c.1.1.14.22.14.37v.16c0,.15-.05.27-.14.37-.1.1-.25.14-.46.14ZM145.34,208.14v-4.18h1.02v.7h.04c.09-.22.22-.41.4-.56.18-.15.44-.23.76-.23.43,0,.76.14.99.42.23.28.34.69.34,1.21v2.64h-1.02v-2.54c0-.3-.05-.52-.16-.67-.11-.15-.28-.22-.53-.22-.11,0-.21.01-.31.04-.1.03-.19.07-.26.13-.08.06-.14.13-.19.21-.05.08-.07.18-.07.29v2.76h-1.02ZM153.12,208.14c-.22,0-.4-.07-.53-.2-.13-.13-.21-.31-.24-.52h-.05c-.07.27-.21.48-.42.61-.21.14-.48.2-.79.2-.43,0-.75-.11-.98-.33-.23-.22-.34-.52-.34-.89,0-.43.15-.75.46-.96.31-.21.75-.32,1.32-.32h.71v-.3c0-.23-.06-.42-.18-.54-.12-.13-.32-.19-.59-.19-.24,0-.43.05-.58.16-.15.1-.27.23-.37.37l-.61-.55c.15-.24.36-.44.62-.58.26-.15.59-.22,1.02-.22.57,0,.99.13,1.29.38.29.26.44.62.44,1.1v1.96h.42v.82h-.57ZM151.42,207.49c.23,0,.42-.05.58-.15.16-.1.24-.25.24-.45v-.55h-.66c-.53,0-.8.17-.8.51v.13c0,.17.05.3.16.38.11.08.27.12.47.12ZM154.52,208.14v-4.18h1.02v.7h.04c.09-.22.22-.41.4-.56.18-.15.44-.23.76-.23.43,0,.76.14.99.42.23.28.34.69.34,1.21v2.64h-1.02v-2.54c0-.3-.05-.52-.16-.67-.11-.15-.28-.22-.53-.22-.11,0-.21.01-.31.04-.1.03-.19.07-.26.13-.08.06-.14.13-.19.21-.05.08-.07.18-.07.29v2.76h-1.02ZM160.87,208.23c-.31,0-.58-.05-.82-.15-.24-.1-.44-.25-.6-.44-.16-.19-.29-.42-.37-.69-.09-.27-.13-.57-.13-.91s.04-.64.13-.9c.09-.27.21-.49.37-.68.16-.19.36-.33.6-.44.24-.1.51-.15.82-.15.42,0,.77.09,1.04.28.27.19.47.45.6.78l-.84.38c-.05-.18-.14-.32-.27-.44-.13-.11-.31-.17-.53-.17-.29,0-.5.09-.64.27-.14.18-.21.42-.21.71v.76c0,.29.07.53.21.71.14.18.36.27.64.27.25,0,.43-.06.57-.19.13-.13.24-.28.31-.47l.78.38c-.14.37-.35.64-.63.83-.28.18-.63.28-1.03.28ZM163.84,203.35c-.21,0-.37-.05-.46-.14-.09-.1-.14-.22-.14-.37v-.16c0-.15.05-.27.14-.37.09-.1.25-.14.46-.14s.36.05.46.14c.1.1.14.22.14.37v.16c0,.15-.05.27-.14.37-.1.1-.25.14-.46.14ZM163.33,203.96h1.02v4.18h-1.02v-4.18ZM165.53,208.14v-4.18h1.02v.7h.04c.09-.22.22-.41.4-.56.18-.15.44-.23.76-.23.43,0,.76.14.99.42.23.28.34.69.34,1.21v2.64h-1.02v-2.54c0-.3-.05-.52-.16-.67-.11-.15-.28-.22-.53-.22-.11,0-.21.01-.31.04-.1.03-.19.07-.26.13-.08.06-.14.13-.19.21-.05.08-.07.18-.07.29v2.76h-1.02ZM174.01,208.49c0,.22-.04.41-.12.58-.08.17-.2.31-.38.42-.18.11-.4.2-.68.26-.28.06-.62.09-1.02.09-.35,0-.65-.02-.9-.07-.25-.05-.45-.11-.6-.19-.16-.08-.27-.19-.34-.31-.07-.12-.1-.26-.1-.42,0-.23.07-.42.2-.55.13-.13.31-.21.55-.25v-.09c-.17-.04-.3-.13-.4-.25-.09-.13-.14-.27-.14-.44,0-.11.02-.2.06-.28.04-.08.1-.15.17-.21s.15-.11.24-.15c.09-.04.19-.07.29-.09v-.03c-.26-.12-.45-.28-.57-.49-.13-.21-.19-.45-.19-.73,0-.43.15-.77.44-1.03.29-.26.72-.39,1.29-.39.13,0,.25,0,.38.02.13.02.24.04.35.08v-.14c0-.41.2-.61.59-.61h.65v.78h-.89v.11c.22.12.38.28.49.48.11.2.16.42.16.68,0,.42-.15.76-.44,1.02-.29.26-.72.38-1.29.38-.25,0-.46-.02-.64-.07-.08.04-.15.09-.21.15-.06.06-.09.14-.09.23,0,.21.18.31.54.31h1.12c.51,0,.88.11,1.12.32.23.21.35.5.35.88ZM173.05,208.61c0-.13-.05-.24-.16-.31-.11-.07-.29-.11-.55-.11h-1.42c-.14.11-.22.25-.22.43,0,.16.07.29.2.38.13.09.36.14.68.14h.51c.34,0,.58-.04.73-.13.15-.09.23-.22.23-.39ZM171.06,205.34c0,.42.25.64.75.64s.75-.21.75-.64v-.14c0-.42-.25-.64-.75-.64s-.75.21-.75.64v.14h0ZM179.56,208.14c-.22,0-.4-.07-.53-.2-.13-.13-.21-.31-.24-.52h-.05c-.07.27-.21.48-.42.61-.21.14-.48.2-.79.2-.43,0-.75-.11-.98-.33-.23-.22-.34-.52-.34-.89,0-.43.15-.75.46-.96.31-.21.75-.32,1.32-.32h.71v-.3c0-.23-.06-.42-.18-.54-.12-.13-.32-.19-.59-.19-.24,0-.43.05-.58.16-.15.1-.27.23-.37.37l-.61-.55c.15-.24.36-.44.62-.58.26-.15.59-.22,1.02-.22.57,0,.99.13,1.29.38.29.26.44.62.44,1.1v1.96h.42v.82h-.57ZM177.86,207.49c.23,0,.42-.05.58-.15.16-.1.24-.25.24-.45v-.55h-.66c-.53,0-.8.17-.8.51v.13c0,.17.05.3.16.38.11.08.27.12.47.12ZM180.96,208.14v-4.18h1.02v.7h.04c.09-.22.22-.41.4-.56.18-.15.44-.23.76-.23.43,0,.76.14.99.42.23.28.34.69.34,1.21v2.64h-1.02v-2.54c0-.3-.05-.52-.16-.67-.11-.15-.28-.22-.53-.22-.11,0-.21.01-.31.04-.1.03-.19.07-.26.13-.08.06-.14.13-.19.21-.05.08-.07.18-.07.29v2.76h-1.02ZM188.25,207.44h-.04c-.07.24-.22.43-.42.58-.21.14-.45.22-.73.22-.53,0-.93-.19-1.21-.57-.28-.38-.42-.92-.42-1.62s.14-1.24.42-1.61c.28-.38.68-.56,1.21-.56.28,0,.52.07.73.21.21.14.35.33.42.57h.04v-2.43h1.02v5.92h-1.02v-.7ZM187.39,207.38c.25,0,.45-.06.62-.18.17-.12.25-.29.25-.5v-1.33c0-.2-.08-.37-.25-.49-.17-.12-.37-.18-.62-.18-.27,0-.48.09-.64.27-.16.18-.24.42-.24.72v.72c0,.3.08.54.24.71.16.18.38.26.64.26Z"></path>
  <text class="cls-16" transform="translate(124.29 218.14)"><tspan x="0" y="0">aligning in</tspan><tspan class="cls-31" x="38.17" y="0">c</tspan><tspan x="42.23" y="0">enti</tspan><tspan class="cls-28" x="56.6" y="0">v</tspan><tspan x="60.73" y="0">e </tspan></text>
  <text class="cls-16" transform="translate(137.81 228.14)"><tspan class="cls-28" x="0" y="0">s</tspan><tspan class="cls-12" x="3.94" y="0">tructu</tspan><tspan class="cls-33" x="26.58" y="0">r</tspan><tspan x="29.69" y="0">es</tspan></text>
  <g class="cls-8">
    <path class="cls-2" d="M227.6,175.23h69.37c6.26,0,11.34,5.08,11.34,11.34v51.42c0,6.26-5.08,11.34-11.34,11.34h-69.37c-6.26,0-11.34-5.08-11.34-11.34v-51.42c0-6.26,5.08-11.34,11.34-11.34Z"></path>
  </g>
  <text class="cls-16" transform="translate(258.34 188.14)"><tspan x="0" y="0">8.</tspan></text>
  <text class="cls-16" transform="translate(235.62 198.14)"><tspan x="0" y="0">Ensuring </tspan><tspan class="cls-25" x="34.5" y="0">g</tspan><tspan x="38.82" y="0">ood </tspan></text>
  <text class="cls-16" transform="translate(239.21 208.14)"><tspan class="cls-25" x="0" y="0">g</tspan><tspan class="cls-28" x="4.31" y="0">ov</tspan><tspan x="12.9" y="0">ernan</tspan><tspan class="cls-33" x="34.38" y="0">c</tspan><tspan class="cls-18" x="38.46" y="0">e: </tspan></text>
  <text class="cls-16" transform="translate(286.54 208.14)"><tspan x="0" y="0"> </tspan></text>
  <text class="cls-16" transform="translate(240.24 218.14)"><tspan class="cls-36" x="0" y="0">L</tspan><tspan x="4.1" y="0">eadershi</tspan><tspan class="cls-24" x="36.34" y="0">p</tspan><tspan x="41.02" y="0">, </tspan></text>
  <text class="cls-16" transform="translate(285.52 218.14)"><tspan x="0" y="0"> </tspan></text>
  <text class="cls-16" transform="translate(230.64 228.14)"><tspan class="cls-32" x="0" y="0">c</tspan><tspan x="4.07" y="0">oo</tspan><tspan class="cls-33" x="13.08" y="0">r</tspan><tspan x="16.19" y="0">din</tspan><tspan class="cls-32" x="27.9" y="0">a</tspan><tspan class="cls-13" x="32.34" y="0">tion and </tspan></text>
  <text class="cls-16" transform="translate(235.57 238.14)"><tspan x="0" y="0">a</tspan><tspan class="cls-32" x="4.47" y="0">cc</tspan><tspan x="12.62" y="0">ountability</tspan></text>
  <g class="cls-10">
    <path class="cls-2" d="M332.65,175.23h69.37c6.26,0,11.34,5.08,11.34,11.34v51.42c0,6.26-5.08,11.34-11.34,11.34h-69.37c-6.26,0-11.34-5.08-11.34-11.34v-51.42c0-6.26,5.08-11.34,11.34-11.34Z"></path>
  </g>
  <text class="cls-16" transform="translate(363.39 188.14)"><tspan x="0" y="0">9.</tspan></text>
  <text class="cls-16" transform="translate(354.2 198.14)"><tspan x="0" y="0">Ending </tspan></text>
  <text class="cls-16" transform="translate(331.56 208.14)"><tspan x="0" y="0">homele</tspan><tspan class="cls-25" x="27.59" y="0">s</tspan><tspan x="31.54" y="0">sne</tspan><tspan class="cls-29" x="44.7" y="0">s</tspan><tspan x="48.64" y="0">s: The </tspan></text>
  <text class="cls-16" transform="translate(329.74 218.14)"><tspan x="0" y="0">political e</tspan><tspan class="cls-30" x="36.34" y="0">c</tspan><tspan x="40.41" y="0">ono</tspan><tspan class="cls-28" x="54.12" y="0">m</tspan><tspan class="cls-13" x="61.17" y="0">y </tspan><tspan class="cls-29" x="67.25" y="0">o</tspan><tspan x="71.7" y="0">f </tspan></text>
  <text class="cls-16" transform="translate(354.44 228.14)"><tspan class="cls-32" x="0" y="0">r</tspan><tspan x="3.11" y="0">e</tspan><tspan class="cls-42" x="7.58" y="0">f</tspan><tspan x="10.35" y="0">orm</tspan></text>
</svg>
