<svg
  xmlns="http://www.w3.org/2000/svg"
  width="980"
  height="220"
  viewBox="0 0 980 220"
  fill="none"
>
  <title>Stór | Oireachtas Research Repository</title>
  <rect width="980" height="220" fill="#f6f3ea" />

  <g transform="translate(58 60)">
    <g
      transform="translate(0 8) scale(2.4)"
      stroke="#6b5922"
      stroke-linejoin="round"
      aria-hidden="true"
    >
      <path d="M12 9H26L32 5L38 9H52" stroke-width="1.2" />
      <line x1="12" y1="10.5" x2="52" y2="10.5" stroke-width="1.2" />
      <rect x="12" y="10.5" width="40" height="13.5" stroke-width="1.2" />
      <line x1="27.5" y1="10.5" x2="27.5" y2="24" stroke-width="1.1" />
      <line x1="30" y1="10.5" x2="30" y2="24" stroke-width="1.1" />
      <line x1="34" y1="10.5" x2="34" y2="24" stroke-width="1.1" />
      <line x1="36.5" y1="10.5" x2="36.5" y2="24" stroke-width="1.1" />
      <line x1="26.5" y1="24" x2="37.5" y2="24" stroke-width="1.2" />
      <line x1="12" y1="24" x2="52" y2="24" stroke-width="1.2" />
      <rect x="30.7" y="18.2" width="2.6" height="5.8" fill="#6b5922" stroke="none" />
      <rect x="15" y="13" width="1.7" height="1.7" fill="#6b5922" stroke="none" />
      <rect x="19" y="13" width="1.7" height="1.7" fill="#6b5922" stroke="none" />
      <rect x="23" y="13" width="1.7" height="1.7" fill="#6b5922" stroke="none" />
      <rect x="39.3" y="13" width="1.7" height="1.7" fill="#6b5922" stroke="none" />
      <rect x="43.3" y="13" width="1.7" height="1.7" fill="#6b5922" stroke="none" />
      <rect x="47.3" y="13" width="1.7" height="1.7" fill="#6b5922" stroke="none" />
      <rect x="15" y="18" width="1.7" height="1.7" fill="#6b5922" stroke="none" />
      <rect x="19" y="18" width="1.7" height="1.7" fill="#6b5922" stroke="none" />
      <rect x="23" y="18" width="1.7" height="1.7" fill="#6b5922" stroke="none" />
      <rect x="39.3" y="18" width="1.7" height="1.7" fill="#6b5922" stroke="none" />
      <rect x="43.3" y="18" width="1.7" height="1.7" fill="#6b5922" stroke="none" />
      <rect x="47.3" y="18" width="1.7" height="1.7" fill="#6b5922" stroke="none" />
    </g>

    <text
      x="170"
      y="78"
      fill="#4a463d"
      font-family="'IBM Plex Sans', 'Helvetica Neue', Arial, sans-serif"
      font-size="66"
      font-weight="600"
      letter-spacing="0.03em"
    >
      STÓR
    </text>
  </g>
</svg>
